<?xml version="1.0" encoding="UTF-8"?>
<svg id="Ebene_1" xmlns="http://www.w3.org/2000/svg" version="1.1" xmlns:xlink="http://www.w3.org/1999/xlink" viewBox="0 0 1024 1024">
  <!-- Generator: Adobe Illustrator 30.3.0, SVG Export Plug-In . SVG Version: 2.1.3 Build 182)  -->
  <defs>
    <style>
      .st0 {
        display: none;
        fill: #fefffe;
      }

      .st1 {
        fill: #02b8be;
      }

      .st2 {
        fill: #02b9be;
      }

      .st3 {
        fill: url(#Unbenannter_Verlauf);
      }
    </style>
    <linearGradient id="Unbenannter_Verlauf" data-name="Unbenannter Verlauf" x1="709.89" y1="486.2" x2="290.2" y2="425.96" gradientTransform="translate(0 1026) scale(1 -1)" gradientUnits="userSpaceOnUse">
      <stop offset=".19" stop-color="#10dc79"/>
      <stop offset="1" stop-color="#04c4b8"/>
    </linearGradient>
  </defs>
  <path class="st0" d="M0,1023.5V0h1024v1024H0v-.5ZM712.73,525.85l-44.43,79.9-35.83-64.82c-10.47,6.74-20.92,11.13-33.09,15.04l26.39,47.32,42.53,78.07,45.59-83.5,52.31-92.57,23.65-44.42c14.6-27.42,31.82-69.88,34.7-100.43,3.73-39.55-8.66-79.27-32.83-109.92-40.27-51.07-107.34-71.67-169.64-52.47-69.16,21.31-115.52,88.12-109.59,160.67,3.41,41.73,29.08,93.42,48.99,129.61,15.67-.49,28.88-6.17,41.16-15.42l-.46-23.92c2.22-20.56,13.58-37.82,30.95-50.02-24.55-15.34-37.5-41.35-34.41-69.18,2.89-26,19.88-48.82,45.6-58.46,29.56-11.08,62.96-.38,81.08,24.81,18.46,25.66,17.98,60.48-1.86,85.42-5.03,6.32-10.8,11.03-16.9,16.07,35.8,22.12,43.85,63.17,22.68,99.67l-16.57,28.57ZM647.81,366.27c9.78,7.54,22.25,9.15,34.48,4.18,9.58-3.88,17.72-13.07,20.52-24.77,4.11-17.25-5.91-34.59-21.63-40.59-16.79-6.41-34.72.77-43.12,15.68-8.83,15.67-4.52,34.48,9.76,45.49ZM434.44,456.5c1.93,1.29,3.2,3.75,6.02,4.09.95-.02,2.22,1.02.39,1.99l13.32,13.19,2.34,1.1c.28.13.81,1.12-.74,1.66,2.99,2.49,5.35,5.43,7.58,8.5.99-1.72,2.37-.21.99.98l20.08,20.76c11.59,10.21,23.17,20.02,37.89,25.97,31.03,12.55,66.4,9.55,95.46-6.84,15.34-8.65,28.26-19.41,40.28-32.74,15.58,4.11,33.11-.02,42.91-12,12.45-15.22,12.39-36.14.15-50.62-11.87-14.03-32.09-17.96-48.73-9.14-15.91,8.44-23.94,27.43-18.53,45.64l-19.97,18.7c-18.51,14.32-40.66,21.62-63.88,17.84-16.95-2.75-31.26-13.25-43.71-25.68-9.9-9.88-17.86-20.13-27.2-30.06l-12.68-13.48c-16.66-14.35-35.14-25.68-56.65-28.32-1.17-2.32-4.55-.77-6.36-1.38-5.23-1.73-17.68-1.48-24.48-.96l-10.09.78c-54.45,7.19-96.36,54.08-98.86,109.48-1.46,32.36,9.2,62.8,30.79,86.26,18.24,19.82,41.98,31.33,68.49,34.33l9.98,1.13c30.15.17,59.22,7.64,84.75,23.32,15.91,9.78,29.27,21.33,43.05,34.01,14.07,12.95,28.39,23.46,46.11,30.93,34.15,14.39,73.51,13.93,105.85-3.82,8.58-4.71,9.65-16.17,5.91-23.55-3.81-7.53-14.31-12.52-22.86-8.3-13.86,6.83-27.93,9-43.15,3.69-42.89-14.96-64.77-56.01-115.21-78.55-28.07-12.54-58.67-15.97-89.58-13.8l-17.72-1.17c-43.07-2.83-73.22-42.48-69.84-85.05,2.99-37.63,31.16-68.03,68.55-73.51,8.63-1.26,27.28-.69,31.9,1.14,6.74,2.66,13.46,4.1,19.02,7.82l8.45,5.66ZM381.21,656.69c-2.85-.78-5.54-1.1-8.59-1.34-23.33-1.81-45.05-9.25-63.98-22.27-40.99,24.84-73.39,59.86-93.5,102.91-10.44,22.35-16.04,45.32-17.2,69.96-.7,14.82,10.56,26.84,24.59,27.22,14.58.4,25.91-11.48,26.06-26.14.69-68.16,66.12-136.22,132.62-150.34Z"/>
  <path class="st2" d="M712.73,525.85l16.57-28.57c21.17-36.49,13.12-77.55-22.68-99.67,6.09-5.03,11.87-9.74,16.9-16.07,19.85-24.94,20.32-59.76,1.86-85.42-18.12-25.19-51.53-35.89-81.08-24.81-25.72,9.64-42.71,32.46-45.6,58.46-3.09,27.83,9.86,53.84,34.41,69.18-17.38,12.2-28.74,29.46-30.95,50.02l.46,23.92c-12.28,9.25-25.49,14.93-41.16,15.42-19.91-36.19-45.58-87.89-48.99-129.61-5.93-72.55,40.44-139.36,109.59-160.67,62.3-19.2,129.36,1.4,169.64,52.47,24.17,30.65,36.56,70.37,32.83,109.92-2.88,30.55-20.1,73.01-34.7,100.43l-23.65,44.42-52.31,92.57-45.59,83.5-42.53-78.07-26.39-47.32c12.17-3.91,22.62-8.3,33.09-15.04l35.83,64.82,44.43-79.9Z"/>
  <path class="st3" d="M434.44,456.5l-8.45-5.66c-5.56-3.73-12.28-5.16-19.02-7.82-4.62-1.82-23.27-2.4-31.9-1.14-37.39,5.47-65.56,35.88-68.55,73.51-3.38,42.57,26.77,82.21,69.84,85.05l17.72,1.17c30.91-2.17,61.51,1.27,89.58,13.8,50.44,22.53,72.32,63.59,115.21,78.55,15.22,5.31,29.29,3.14,43.15-3.69,8.56-4.22,19.05.77,22.86,8.3,3.73,7.38,2.66,18.85-5.91,23.55-32.35,17.75-71.7,18.2-105.85,3.82-17.72-7.47-32.04-17.98-46.11-30.93-13.77-12.68-27.13-24.23-43.05-34.01-25.53-15.68-54.59-23.15-84.75-23.32l-9.98-1.13c-26.51-2.99-50.25-14.51-68.49-34.33-21.59-23.46-32.25-53.9-30.79-86.26,2.5-55.4,44.41-102.29,98.86-109.48l10.09-.78c6.8-.52,19.25-.77,24.48.96,1.82.6,5.19-.95,6.36,1.38,21.51,2.63,39.99,13.96,56.65,28.32l12.68,13.48c9.34,9.92,17.3,20.17,27.2,30.06,12.46,12.43,26.77,22.93,43.71,25.68,23.22,3.77,45.37-3.52,63.88-17.84l19.97-18.7c-5.42-18.22,2.61-37.2,18.53-45.64,16.64-8.83,36.86-4.9,48.73,9.14,12.25,14.48,12.3,35.4-.15,50.62-9.8,11.98-27.34,16.11-42.91,12-12.02,13.33-24.93,24.09-40.28,32.74-29.06,16.39-64.42,19.39-95.46,6.84-14.73-5.95-26.3-15.76-37.89-25.97l-20.08-20.76c1.38-1.19,0-2.69-.99-.98-2.22-3.07-4.59-6.01-7.58-8.5,1.56-.54,1.02-1.53.74-1.66l-2.34-1.1-13.32-13.19c1.82-.98.55-2.02-.39-1.99-2.82-.34-4.1-2.8-6.02-4.09ZM662.92,469.76c7.46,4.9,16.42,2.56,20.87-4.35,4.1-6.38,2.08-15.72-4.47-20.05-6.72-4.43-15.93-2.82-20.43,4.6-3.83,6.31-2.23,15.69,4.03,19.8Z"/>
  <path class="st2" d="M381.21,656.69c-66.5,14.12-131.93,82.18-132.62,150.34-.15,14.65-11.48,26.53-26.06,26.14-14.02-.38-25.28-12.4-24.59-27.22,1.16-24.64,6.76-47.62,17.2-69.96,20.11-43.04,52.51-78.06,93.5-102.91,18.93,13.02,40.65,20.46,63.98,22.27,3.05.24,5.74.55,8.59,1.34Z"/>
  <path class="st1" d="M647.81,366.27c-14.28-11.02-18.59-29.82-9.76-45.49,8.4-14.91,26.33-22.09,43.12-15.68,15.72,6,25.74,23.35,21.63,40.59-2.79,11.7-10.94,20.89-20.52,24.77-12.23,4.96-24.7,3.36-34.48-4.18Z"/>
  <path class="st0" d="M662.92,469.76c-6.26-4.11-7.86-13.49-4.03-19.8,4.51-7.42,13.72-9.03,20.43-4.6,6.55,4.32,8.57,13.66,4.47,20.05-4.45,6.91-13.41,9.25-20.87,4.35Z"/>
</svg>